<?xml version="1.0" encoding="utf-8"?>
<!-- Generator: Adobe Illustrator 18.0.0, SVG Export Plug-In . SVG Version: 6.00 Build 0)  -->
<!DOCTYPE svg PUBLIC "-//W3C//DTD SVG 1.1//EN" "http://www.w3.org/Graphics/SVG/1.1/DTD/svg11.dtd">
<svg version="1.1" id="Layer_1" xmlns="http://www.w3.org/2000/svg" xmlns:xlink="http://www.w3.org/1999/xlink" x="0px" y="0px"
	 width="79.8px" height="119px" viewBox="0 0 79.8 119" enable-background="new 0 0 79.8 119" xml:space="preserve">
<path fill="#E74C3C" d="M8.4,44.4c6.8,21.3,22.4,49.6,58.3,64.7l-9.1-17.6c-0.2-0.5,0.1-1.1,0.6-1.3c0.5-0.2,1.1,0,1.4,0.5l20,26.8
	c0.2,0.4,0.2,0.9-0.1,1.2c-0.3,0.4-0.7,0.5-1.1,0.4c-0.1,0-7.7-3.9-27.2-6.7l-1.1-4.2c16,3.5,22.7,7.2,26.4,8.1l-13.4-16.1l6.4,10.5
	c0.1,0.4,0,0.8-0.3,1.1c-0.3,0.3-0.8,0.4-1.2,0.2C30.4,95.7,13.3,67.2,6.2,45C-1.4,21,0.1,0.2,0.1,0l4.5,0.3
	C4.6,0.5,0.9,20.8,8.4,44.4z"/>
</svg>
