<?xml version="1.0" encoding="utf-8"?>
<!-- Generated by IcoMoon.io -->
<!DOCTYPE svg PUBLIC "-//W3C//DTD SVG 1.1//EN" "http://www.w3.org/Graphics/SVG/1.1/DTD/svg11.dtd">
<svg version="1.1" xmlns="http://www.w3.org/2000/svg" xmlns:xlink="http://www.w3.org/1999/xlink" width="50" height="40" viewBox="0 0 50 40">
<g id="icomoon-ignore">
</g>
<path d="M49.9 18.3l-0.6-1.7c-0.3-0.9-1.3-1.6-2.2-1.6h-2.1c-1.6-4.4-3.4-9.6-4-10.8-0.9-1.9-3.6-2.8-5.1-3.2 0 0-2.5-1-10.9-1s-10.9 1-10.9 1c-1.8 0.6-4.2 1.4-5.2 3.3-0.5 0.9-2.4 6.3-4 10.8h-2c-0.9-0.1-1.9 0.6-2.2 1.6l-0.6 1.7c-0.3 0.9 0.2 1.6 1.1 1.6h2c-0.3 0.7-0.4 1.2-0.4 1.2-0.2 0.3-0.3 1.5-0.3 1.9v15.2c0 1 0.8 1.8 1.8 1.8h6.5c1 0 1.8-0.8 1.8-1.8v-3.3h25v3.2c0 1 0.8 1.8 1.8 1.8h6.5c1 0 1.8-0.8 1.8-1.8v-15.2c0-0.3-0.1-1.6-0.3-1.9 0 0-0.2-0.5-0.4-1.2h2c0.7 0.1 1.2-0.6 0.9-1.6zM12.5 27.6h-2.7c-2.4 0-4.8-0.3-4.8-1.8v-1.8c0-1.8 1-1.8 2.1-1.8s3.2 0.9 4.7 1.6c1.5 0.7 3.3 1.3 3.3 2.4 0 0.9-0.6 1.4-2.6 1.4zM8.7 15.7c1.3-5.5 2.7-8.6 3.1-9.4 0.3-0.6 0.5-2.6 13.2-2.6s13 2.2 13 2.2c0.4 1.2 1.9 4.7 3.2 9.7 0 0-5.4 1.8-16.2 1.8s-16.3-1.7-16.3-1.7zM34.9 26.1c0-1.2 1.7-1.7 3.3-2.4 1.4-0.6 3.6-1.6 4.7-1.6s2.1 0.1 2.1 1.8v1.8c0 1.5-2.4 1.8-4.8 1.8h-2.7c-2 0.1-2.6-0.4-2.6-1.4z" fill="#FFF"></path>
</svg>
