<?xml version="1.0" encoding="utf-8"?>
<!-- Generated by IcoMoon.io -->
<!DOCTYPE svg PUBLIC "-//W3C//DTD SVG 1.1//EN" "http://www.w3.org/Graphics/SVG/1.1/DTD/svg11.dtd">
<svg version="1.1" xmlns="http://www.w3.org/2000/svg" xmlns:xlink="http://www.w3.org/1999/xlink" width="40" height="40" viewBox="0 0 40 40">
<g id="icomoon-ignore">
</g>
<path d="M28.1 14.2c0 0-1.7-1.8-8.4-1.8-6.6 0-8.4 1.8-8.4 1.8v13.2c-0.9 0.2-1.6 0.4-2 0.6-0.7 0.3-1.2 0.9-1.2 1.7v7.4c0 0.9 0.6 1.6 1.4 1.8 1.9 0.4 5.7 1.1 10.2 1.1s8.2-0.7 10.2-1.1c0.8-0.2 1.4-0.9 1.4-1.8v-7.4c0-0.8-0.5-1.4-1.2-1.7-0.5-0.2-1.2-0.4-2-0.6v-13.2zM14.6 15.2c0.7 0 1.3 0.6 1.3 1.3s-0.6 1.3-1.3 1.3c-0.7 0-1.3-0.6-1.3-1.3s0.6-1.3 1.3-1.3zM13.2 19.8c0-0.8 0.6-1.5 1.4-1.5s1.4 0.7 1.4 1.5v7.7c0 0.8-0.6 1.5-1.4 1.5s-1.4-0.7-1.4-1.5v-7.7zM19.8 10.4c0.8 0 1.5-0.7 1.5-1.5v-7.4c0-0.8-0.7-1.5-1.5-1.5s-1.5 0.7-1.5 1.5v7.4c0 0.8 0.7 1.5 1.5 1.5zM13.6 9.5c0.1 0.1 0.3 0.2 0.5 0.2s0.4-0.1 0.5-0.2c0.3-0.3 0.3-0.8 0-1l-5.3-5.4c-0.3-0.3-0.8-0.3-1.1 0-0.2 0.3-0.2 0.8 0.1 1.1l5.3 5.3zM25.5 9.7c0.2 0 0.4-0.1 0.5-0.2l5.3-5.3c0.3-0.3 0.3-0.8 0-1-0.3-0.3-0.8-0.3-1.1 0l-5.2 5.2c-0.3 0.3-0.3 0.8 0 1 0.1 0.2 0.3 0.3 0.5 0.3zM39.5 11.3c-0.1-0.8-0.9-1.4-1.7-1.2l-7.3 1.2c-0.8 0.1-1.4 0.9-1.2 1.7 0.1 0.7 0.8 1.2 1.5 1.2 0.1 0 0.2 0 0.2 0l7.3-1.2c0.8-0.1 1.4-0.8 1.2-1.7zM8.8 14.3c0.7 0 1.3-0.5 1.5-1.2 0.1-0.8-0.4-1.6-1.2-1.7l-7.3-1.2c-0.9-0.2-1.6 0.3-1.8 1.1-0.1 0.8 0.4 1.6 1.2 1.7l7.3 1.2c0.2 0.1 0.2 0.1 0.3 0.1z" fill="white"></path>
</svg>
