<?xml version="1.0" encoding="utf-8"?>
<!-- Generator: Adobe Illustrator 18.0.0, SVG Export Plug-In . SVG Version: 6.00 Build 0)  -->
<!DOCTYPE svg PUBLIC "-//W3C//DTD SVG 1.1//EN" "http://www.w3.org/Graphics/SVG/1.1/DTD/svg11.dtd">
<svg version="1.1" id="Layer_1" xmlns="http://www.w3.org/2000/svg" xmlns:xlink="http://www.w3.org/1999/xlink" x="0px" y="0px"
	 width="192.6px" height="185.1px" viewBox="0 0 192.6 185.1" enable-background="new 0 0 192.6 185.1" xml:space="preserve">
<circle fill="#E67E22" cx="92.6" cy="92.6" r="92.6"/>
<g>
	<path fill="#FFFFFF" d="M132.7,96.9c-0.7-1.9-1.7-3.5-5.8-5.5s-18.8-9.2-19.9-9.9c-1.5-1-2.2-2.8-2.5-4.5c2.7-3.3,4.7-7.4,5.4-11.4
		c0.7-0.8,1.2-1.9,1.5-3.2c0.9-3.3,0.9-5.6,0-6.9c1.1-4.1,2-11.4-2.5-16.6c-0.8-1-3.4-3.9-8.7-5.5l-2.6-0.9c0,0-0.1,0.2-0.1,0.2
		c-3.9-1.2-6.8-1.4-7.4-1.4c0,0,0,0,0,0c-0.2,0-0.3-0.2-0.5-0.2l-0.2-0.1c-0.1,0-0.1,0-0.2,0c-0.1,0-0.2-0.1-0.3-0.1
		c0,0-0.1,0-0.1,0l-1.1,0c-0.1,0-0.3,0-0.4,0.1l-0.1,0c-0.7,0.1-1.4,0.3-1.7,0.5c-1.5,0.6-9.1,4-11.5,11.6c-0.5,1.4-1.1,4.9,0,11.9
		l-0.1,0.1c-0.1,0.1-0.2,0.2-0.2,0.3c-1.1,1.7-0.7,4.5-0.1,6.6c0.3,1.5,0.8,2.6,1.5,3.4c0.7,4.4,2.8,8.6,5.5,11.9
		c-0.1,1.6-0.9,3.5-3.3,4.7c-3.8,1.9-24.4,10.7-25.9,13s-3.3,8.1-3.6,14.5c-0.3,6.4-1,24.6-0.7,25.9c0.3,1.3,2.7,5.4,5.6,5.7
		c2.9,0.3,21.2,0.7,29.3-0.4c5.9-0.8,12.4-2.6,15.6-3.6c0.6-0.2,0.6-1.1,0-1.3c-6.6-2.4-28.3-10.4-33.1-11.4
		c-0.3-0.1-0.5-0.3-0.5-0.6c-0.2-3.8-0.2-10.9-0.2-13c0-0.3,0.3-0.6,0.6-0.7l0.2,0c0.4,0,0.7,0.3,0.7,0.6l0.4,11.6
		c0,0.3,0.2,0.5,0.4,0.6l0.7,0.3c0.2,0.1,0.5,0.1,0.7-0.1l5.8-4.4c0.1-0.1,0.3-0.1,0.4-0.1l6.8,0.3c0.2,0,0.5-0.1,0.6-0.3
		c0.3-0.4,0-1-0.5-1l-7.2-0.6c-0.1,0-0.3,0-0.4,0.1l-4.2,2.4c-0.5,0.3-1-0.1-1-0.6l0.4-13.3c0-0.4,0.3-0.7,0.7-0.7l45,0.2
		c0.4,0,0.8,0.3,0.8,0.7v12.8c0,0.3,0.1,0.6,0.5,0.7l2.6,0.3c0.4,0,0.8-0.3,0.7-0.8l-1.1-8.2c0-0.4,0.2-0.3,0.7-0.3h0.3
		c0.3,0,0.6-0.3,0.7,0.1l1.8,10.3c0.1,0.4-0.3,0.7-0.7,0.7l-36.1-3.8c-0.3,0-0.5,0.1-0.6,0.3l-4.9,7.8c-0.2,0.4-0.1,0.8,0.3,1
		l22,8.1c0.1,0,0.1,0.1,0.2,0.1c0.7,0.5,5.2,4,5.9,4.3c0.7,0.3,20.7,3.7,25.8,2.7c5.1-1,5.7-6.5,5.7-8.8S133.4,98.9,132.7,96.9z
		 M76.6,101.9c0,0.5-0.4,1.6-0.9,1.6h-6.7c-0.6,0-1-0.7-1-1.3l0.1-13.4c0-0.4,0.2-0.8,0.6-1l6.5-3.2c0.7-0.3,1.4,0.1,1.4,0.9V101.9z
		 M75.5,56.9l0.1-0.1c0.5-0.4,0.7-0.9,0.6-1.5c-1.2-7.4-0.4-10.4-0.1-11.2c2.1-6.6,8.8-9.6,10.2-10.1c0.3-0.1,0.8-0.3,1.3-0.3l0.2,0
		l1.1-0.1l0,0.1l0.2,0c0.2,0,0.4-0.1,0.7-0.1l0.2-0.1c0.2,0,2.8,0.3,6.7,1.5l2.7,0.9c4.9,1.5,7.2,4.2,7.6,4.7
		C111,45,110,51.8,109,55.4c-0.1,0.4,0,0.9,0.2,1.2l0.2,0.3c0.3,0.4,0.5,1.9-0.3,5.1c-0.2,1-0.5,1.8-1.1,2.3
		c-0.2,0.2-0.3,0.5-0.4,0.8c-1.3,7.8-8.3,16.6-15.7,16.6c-6.3,0-13.4-8-14.7-16.6c0-0.3-0.2-0.6-0.4-0.8c-0.5-0.6-0.9-1.4-1.1-2.5
		C75.1,59.4,75.1,57.6,75.5,56.9z M103.9,85.8c-3.1,2-7.3,3.3-11.8,3.3c-4.6,0-8.7-1.2-11.8-3.3c-0.4-0.2-0.5-0.7-0.3-1.1
		c0.7-1.5,1.6-2.8,2.6-3.9c0.3-0.3,0.7-0.4,1.1-0.2c0.1,0.1,0.2,0.2,0.3,0.3c1.1,1.1,2.7,2,4.5,2.5c1.2,0.4,2.4,0.6,3.5,0.6
		c1.7,0,3.3-0.3,4.8-1c0.1-0.1,0.3-0.1,0.4-0.2c0.1-0.1,0.3-0.1,0.4-0.2c0.2-0.1,0.3-0.2,0.5-0.3c1-0.5,2.1-1.2,3-1.9
		c0.2,0,0.4,0.1,0.6,0.3c1,1.1,1.9,2.5,2.6,3.9C104.4,85.1,104.2,85.6,103.9,85.8z M113.8,103.5h-6.7c-0.5,0-1.6-1-1.6-1.6V85.4
		c0-0.7,1.1-1.2,1.7-0.9l6.7,3.2c0.3,0.2,0.6,0.5,0.6,0.9l0.2,13.6C114.8,102.8,114.4,103.5,113.8,103.5z"/>
	<path fill="#FFFFFF" d="M76.6,109.7c0-0.6-0.5-1.2-1.2-1.2h-3.7c-0.6,0-1.2,0.5-1.2,1.2v1.7c0,0.6,0.5,1.2,1.2,1.2h3.7
		c0.6,0,1.2-0.5,1.2-1.2V109.7z"/>
	<path fill="#FFFFFF" d="M111.6,109.7c0-0.6-0.5-1.2-1.2-1.2h-3.7c-0.6,0-1.2,0.5-1.2,1.2v1.7c0,0.6,0.5,1.2,1.2,1.2h3.7
		c0.6,0,1.2-0.5,1.2-1.2V109.7z"/>
</g>
<g>
	<path fill="#FFFFFF" d="M184.2,100.5c-4.4,0-7.9-3.5-7.9-7.9s3.5-7.9,7.9-7.9c4.4,0,7.9,3.5,7.9,7.9S188.6,100.5,184.2,100.5z"/>
	<path fill="#7F8C8D" d="M184.2,85.2c4.1,0,7.4,3.3,7.4,7.4c0,4.1-3.3,7.4-7.4,7.4s-7.4-3.3-7.4-7.4
		C176.8,88.5,180.1,85.2,184.2,85.2 M184.2,84.2c-4.6,0-8.4,3.8-8.4,8.4s3.8,8.4,8.4,8.4c4.6,0,8.4-3.8,8.4-8.4
		S188.8,84.2,184.2,84.2L184.2,84.2z"/>
</g>
</svg>
