<?xml version="1.0" encoding="utf-8"?>
<!-- Generator: Adobe Illustrator 18.0.0, SVG Export Plug-In . SVG Version: 6.00 Build 0)  -->
<!DOCTYPE svg PUBLIC "-//W3C//DTD SVG 1.1//EN" "http://www.w3.org/Graphics/SVG/1.1/DTD/svg11.dtd">
<svg version="1.1" id="Layer_1" xmlns="http://www.w3.org/2000/svg" xmlns:xlink="http://www.w3.org/1999/xlink" x="0px" y="0px"
	 width="201px" height="185.1px" viewBox="0 0 201 185.1" enable-background="new 0 0 201 185.1" xml:space="preserve">
<circle fill="#2980B9" cx="100.6" cy="92.6" r="92.6"/>
<path fill="#FFFFFF" d="M138,95.1l-36.9-32.3L62,95.1v40.5c0,0,0.2,2.3,2.5,2.3c0.9,0,7.9,0,17,0c-2.6-5-4-10.8-4-17.1
	c0-4,0.7-7.9,1.8-11.5c13.1-7.8,29.4-7.8,42.5,0c1.1,3.6,1.8,7.5,1.8,11.5c0,6.2-1.5,12-4,17c8.1,0,14.4,0,15.4,0c2.9,0,3-2.9,3-2.9
	V95.1z M120,105.3c-3-1.3-7-2.3-10-3v-3.5c0-5.1-3.9-9.2-9-9.2c-5.1,0-9,4.1-9,9.2v3.5c-3,0.7-6,1.6-9,3v-6.4
	c0-10.1,8.4-18.4,18.5-18.4c10.2,0,18.5,8.3,18.5,18.4V105.3z M101.5,45.4L48.4,92.1c0,0,3.3,6,10.4,0L101.5,56l40,35.9
	c8.3,6,11.4,0,11.4,0L101.5,45.4z M140,77.1V56.5h-9.7L130,68.7L140,77.1z M105.2,136.5l-1.7-10.7c1-0.8,1.7-2.3,1.7-3.7
	c0-2.5-2.1-4.7-4.6-4.7c-2.5,0-4.6,2-4.6,4.6c0,1.4,0.7,3,1.7,3.9L96,136.5H105.2z"/>
<g>
	<path fill="#FFFFFF" d="M8.4,100.5c-4.4,0-7.9-3.5-7.9-7.9c0-4.4,3.5-7.9,7.9-7.9c4.4,0,7.9,3.5,7.9,7.9
		C16.3,96.9,12.8,100.5,8.4,100.5z"/>
	<path fill="#7F8C8D" d="M8.4,85.2c4.1,0,7.4,3.3,7.4,7.4c0,4.1-3.3,7.4-7.4,7.4C4.3,100,1,96.7,1,92.6C1,88.5,4.3,85.2,8.4,85.2
		 M8.4,84.2c-4.6,0-8.4,3.8-8.4,8.4c0,4.6,3.8,8.4,8.4,8.4s8.4-3.8,8.4-8.4C16.8,87.9,13,84.2,8.4,84.2L8.4,84.2z"/>
</g>
<g>
	<path fill="#FFFFFF" d="M192.6,100.5c-4.4,0-7.9-3.5-7.9-7.9c0-4.4,3.5-7.9,7.9-7.9c4.4,0,7.9,3.5,7.9,7.9
		C200.5,96.9,197,100.5,192.6,100.5z"/>
	<path fill="#7F8C8D" d="M192.6,85.2c4.1,0,7.4,3.3,7.4,7.4c0,4.1-3.3,7.4-7.4,7.4c-4.1,0-7.4-3.3-7.4-7.4
		C185.2,88.5,188.5,85.2,192.6,85.2 M192.6,84.2c-4.6,0-8.4,3.8-8.4,8.4c0,4.6,3.8,8.4,8.4,8.4c4.6,0,8.4-3.8,8.4-8.4
		C201,87.9,197.2,84.2,192.6,84.2L192.6,84.2z"/>
</g>
</svg>
