<?xml version="1.0" encoding="utf-8"?>
<!-- Generator: Adobe Illustrator 18.0.0, SVG Export Plug-In . SVG Version: 6.00 Build 0)  -->
<!DOCTYPE svg PUBLIC "-//W3C//DTD SVG 1.1//EN" "http://www.w3.org/Graphics/SVG/1.1/DTD/svg11.dtd">
<svg version="1.1" xmlns="http://www.w3.org/2000/svg" xmlns:xlink="http://www.w3.org/1999/xlink" x="0px" y="0px" width="451px"
	 height="151px" viewBox="0 0 451 151" enable-background="new 0 0 451 151" xml:space="preserve">
<g id="Grid">
	<rect x="0.5" y="0.5" fill="none" width="150" height="150"/>
	<rect x="150.5" y="0.5" fill="none" width="150" height="150"/>
	<rect x="300.5" y="0.5" fill="none" width="150" height="150"/>
</g>
<g id="outline">
	<path fill="#FFFFFF" stroke="#287FB8" stroke-miterlimit="10" d="M48.4,95.8c-1.5,0.8-2.9,2.3-2.9,4v18.6c0,0.8,0.7,1.6,1.2,2.3
		c7.7,1.7,17.8,2.8,28.6,2.8c10.8,0,20.2-1,28-2.8c0.4-0.7,0.3-1.5,0.3-2.3V99.9c0-1.8-0.5-3.3-2.1-4.1c-6.6,2.1-16,3.4-26.5,3.4
		C64.4,99.2,55,97.9,48.4,95.8z"/>
	<path fill="#FFFFFF" stroke="#287FB8" stroke-miterlimit="10" d="M95.5,62.8h0.9c0,0-4.9-5.3-21.4-5.3c-16.6,0-21.4,3.6-21.4,3.6
		v33c0,0,0.4,0,0.3,0.1c6.3,1.4,13.8,2.2,21.5,2.2c7.7,0,14.6-0.8,20.8-2.2c-0.1,0-0.6,0-0.6-0.1V62.8z"/>
	<circle fill="#FFFFFF" stroke="#287FB8" stroke-miterlimit="10" cx="62" cy="66.3" r="2.7"/>
	<path fill="#FFFFFF" stroke="#287FB8" stroke-miterlimit="10" d="M59.1,73.1c0-1.7,1.3-3.1,3-3.1s3,1.4,3,3.1V89
		c0,1.7-1.3,3.1-3,3.1c-1.7,0-3-1.4-3-3.1V73.1z"/>
	<path fill="#FFFFFF" stroke="#287FB8" stroke-miterlimit="10" d="M75.5,51.5c2.1,0,3.8-1.7,3.8-3.7V29.2c0-2.1-1.8-3.7-3.8-3.7
		c-2.1,0-3.8,1.7-3.8,3.7v18.6C71.7,49.9,73.4,51.5,75.5,51.5z"/>
	<path fill="#FFFFFF" stroke="#287FB8" stroke-miterlimit="10" d="M59.9,49.1c0.4,0.4,0.8,0.5,1.3,0.5c0.5,0,1-0.2,1.3-0.5
		c0.7-0.7,0.7-1.9,0-2.6L49.4,33.4c-0.7-0.7-1.9-0.7-2.6,0c-0.7,0.7-0.7,1.9,0,2.6L59.9,49.1z"/>
	<path fill="#FFFFFF" stroke="#287FB8" stroke-miterlimit="10" d="M89.8,49.7c0.5,0,0.9-0.2,1.3-0.5L104.2,36c0.7-0.7,0.7-1.9,0-2.6
		c-0.7-0.7-1.9-0.7-2.6,0L88.4,46.5c-0.7,0.7-0.7,1.9,0,2.6C88.8,49.5,89.3,49.7,89.8,49.7z"/>
	<path fill="#FFFFFF" stroke="#287FB8" stroke-miterlimit="10" d="M125.4,53.9c-0.3-2-2.2-3.4-4.3-3.1l-18.3,3
		c-2,0.3-3.4,2.3-3.1,4.3c0.3,1.8,1.9,3.1,3.7,3.1c0.2,0,0.4,0,0.6-0.1l18.3-3C124.4,57.8,125.8,55.9,125.4,53.9z"/>
	<path fill="#FFFFFF" stroke="#287FB8" stroke-miterlimit="10" d="M47.6,61.2c1.8,0,3.4-1.3,3.7-3.1c0.3-2-1-3.9-3.1-4.3l-18.3-3
		c-2.1-0.4-3.9,1-4.3,3.1c-0.3,2,1,3.9,3.1,4.3l18.3,3C47.2,61.2,47.4,61.2,47.6,61.2z"/>
	<path fill="#FFFFFF" stroke="#287FB8" stroke-miterlimit="10" d="M75.5,96.4c-7.7,0-14.9-0.8-21.2-2.2c-1.2,0.3-2.2,0.5-3.1,0.8
		c6.5,1.9,15,3,24.3,3c9.3,0,17.7-1.1,24.2-3c-0.9-0.3-1.9-0.5-3-0.8C90.4,95.6,83.2,96.4,75.5,96.4z"/>
	<path fill="#FFFFFF" stroke="#287FB8" stroke-miterlimit="10" d="M47.2,120.7c0.6,1,1.7,1.8,2.9,2.1c4.8,1,14.2,2.7,25.4,2.7
		c11.2,0,20.6-1.6,25.4-2.7c1.3-0.3,2.3-1.1,2.9-2.1c-7.7,1.7-17.6,2.8-28.3,2.8C64.7,123.5,54.9,122.5,47.2,120.7z"/>
	<path fill="#FFFFFF" stroke="#287FB8" stroke-miterlimit="10" d="M49.5,119.2v-18.9c0-1.9,1.8-3.7,3.7-4.3c0.2-0.1,0.6-0.1,0.8-0.2
		c-0.4-0.1-0.6-0.2-1-0.3c-0.5,0.1-1.5,0.3-1.9,0.4c-1.8,0.7-3.6,2.4-3.6,4.3v18.9c0,0.7,0.7,1.4,1.1,1.9c0.7,0.1,1.2,0.3,2,0.4
		C50.1,120.8,49.5,120,49.5,119.2z"/>
	<path fill="#FFFFFF" stroke="#287FB8" stroke-miterlimit="10" d="M99.7,95c-6.4,1.9-14.9,3-24.2,3c-9.3,0-17.8-1.1-24.3-3
		c-0.6,0.2-1.2,0.4-1.7,0.6c-0.2,0.1-0.4,0.2-0.6,0.3c6.6,2.1,16,3.4,26.5,3.4c10.5,0,19.9-1.3,26.5-3.4c-0.1-0.1-0.2-0.1-0.4-0.2
		C101,95.4,100.4,95.2,99.7,95z"/>
	<path fill="#FFFFFF" stroke="#287FB8" stroke-miterlimit="10" d="M75.5,96.4c-7.7,0-14.9-0.8-21.2-2.2c-1.2,0.3-2.2,0.5-3.1,0.8
		c6.5,1.9,15,3,24.3,3c9.3,0,17.7-1.1,24.2-3c-0.9-0.3-1.9-0.5-3-0.8C90.4,95.6,83.2,96.4,75.5,96.4z"/>
	<rect x="244.1" y="30.8" fill="#FFFFFF" stroke="#287FB8" stroke-miterlimit="10" width="15.4" height="35"/>
	<polygon fill="#FFFFFF" stroke="#287FB8" stroke-miterlimit="10" points="175.5,73.8 275.5,73.8 227,25.7 	"/>
	<rect x="188.5" y="73.8" fill="#FFFFFF" stroke="#287FB8" stroke-miterlimit="10" width="72" height="52"/>
	<g>
		<polygon fill="#FFFFFF" stroke="#287FB8" stroke-miterlimit="10" points="195.7,73.8 192.6,79.2 189.5,73.8 		"/>
		<polygon fill="#FFFFFF" stroke="#287FB8" stroke-miterlimit="10" points="201.7,73.8 198.6,79.2 195.5,73.8 		"/>
		<polygon fill="#FFFFFF" stroke="#287FB8" stroke-miterlimit="10" points="207.7,73.8 204.6,79.2 201.5,73.8 		"/>
		<polygon fill="#FFFFFF" stroke="#287FB8" stroke-miterlimit="10" points="213.7,73.8 210.5,79.2 207.4,73.8 		"/>
		<polygon fill="#FFFFFF" stroke="#287FB8" stroke-miterlimit="10" points="219.6,73.8 216.5,79.2 213.4,73.8 		"/>
		<polygon fill="#FFFFFF" stroke="#287FB8" stroke-miterlimit="10" points="225.6,73.8 222.5,79.2 219.4,73.8 		"/>
		<polygon fill="#FFFFFF" stroke="#287FB8" stroke-miterlimit="10" points="231.6,73.8 228.5,79.2 225.4,73.8 		"/>
		<polygon fill="#FFFFFF" stroke="#287FB8" stroke-miterlimit="10" points="237.6,73.8 234.4,79.2 231.3,73.8 		"/>
		<polygon fill="#FFFFFF" stroke="#287FB8" stroke-miterlimit="10" points="243.5,73.8 240.4,79.2 237.3,73.8 		"/>
		<polygon fill="#FFFFFF" stroke="#287FB8" stroke-miterlimit="10" points="249.5,73.8 246.4,79.2 243.3,73.8 		"/>
		<polygon fill="#FFFFFF" stroke="#287FB8" stroke-miterlimit="10" points="255.5,73.8 252.4,79.2 249.3,73.8 		"/>
		<polygon fill="#FFFFFF" stroke="#287FB8" stroke-miterlimit="10" points="261.5,73.8 258.3,79.2 255.2,73.8 		"/>
	</g>
	<rect x="192.5" y="82.3" fill="#FFFFFF" stroke="#287FB8" stroke-miterlimit="10" width="21.6" height="18"/>
	<rect x="194.5" y="84.8" fill="#FFFFFF" stroke="#287FB8" stroke-miterlimit="10" width="18" height="14"/>
	
		<rect x="203.5" y="85" transform="matrix(1 6.992820e-003 -6.992820e-003 1 0.6458 -1.4278)" fill="#FFFFFF" stroke="#287FB8" stroke-miterlimit="10" width="2" height="13.3"/>
	<rect x="235.2" y="82.3" fill="#FFFFFF" stroke="#287FB8" stroke-miterlimit="10" width="21.7" height="18"/>
	<rect x="236.5" y="84.8" fill="#FFFFFF" stroke="#287FB8" stroke-miterlimit="10" width="18" height="14"/>
	<rect x="245.5" y="84.8" fill="#FFFFFF" stroke="#287FB8" stroke-miterlimit="10" width="2" height="13.5"/>
	<rect x="214.5" y="106.3" fill="#FFFFFF" stroke="#287FB8" stroke-miterlimit="10" width="22" height="19"/>
	<rect x="216.5" y="108.3" fill="#FFFFFF" stroke="#287FB8" stroke-miterlimit="10" width="18" height="17"/>
	<path fill="#FFFFFF" stroke="#287FB8" stroke-miterlimit="10" d="M403,109.8h21.5V82.7c0,0,0-3.5-0.4-4.1c0,0-0.2-0.8-0.7-2.8h4.4
		c2,0,3.1-1.5,2.4-3.5l-1.3-3.7c-0.7-2-2.9-3.7-4.9-3.7h-4.5c-3.4-9-7.6-27.6-8.8-30.3c-1.9-4.2-7.9-6-11.2-7c0,0-5.5-2.1-24-2.1
		c-18.5,0-24,2.1-24,2.1c-3.9,1.3-9.3,3-11.4,7.1c-1,1.9-5.2,20.1-8.7,30.1h-4.5c-2,0-4.2,1.8-4.9,3.8l-1.3,3.6
		c-0.7,2,0.4,3.6,2.4,3.6h4.4c-0.6,2-0.9,2.8-0.9,2.8c-0.4,0.6-0.8,3.4-0.8,4.1l-0.2,21.9l-0.2,1.5v3.7H348H403z"/>
	<path fill="#FFFFFF" stroke="#287FB8" stroke-miterlimit="10" d="M338.1,61.1c3-13.8,6.3-21.6,7-23.8c0.6-1.6,1.1-6.5,30.4-6.5
		s29.9,5.6,30,5.6c0.9,3,4.5,11.9,7.3,24.6c0,0-12.3,4.6-37.3,4.6C350.5,65.7,338.1,61.1,338.1,61.1z"/>
	<path fill="#FFFFFF" stroke="#287FB8" stroke-miterlimit="10" d="M402.5,121.6c0,2.1,2.2,4.2,4.4,4.2h14.2c2.1,0,3.8-1.7,3.8-3.9
		l0-7.1h-22.4V121.6z"/>
	<path fill="#FFFFFF" stroke="#287FB8" stroke-miterlimit="10" d="M329.6,125.8h14.5c2.2,0,4.4-2,4.4-4.2v-6.8h-23v6.7
		C325.5,123.7,327.5,125.8,329.6,125.8z"/>
	<path fill="#FFFFFF" stroke="#287FB8" stroke-miterlimit="10" d="M411.6,95.5L411.6,95.5c-1.9,1.9-4.6,3-7.3,3h-58
		c-2.7,0-5.4-1.1-7.3-3v0c-1.9-1.9-4.6-3-7.3-3h-5.8v22.6h99V92.5h-6C416.2,92.5,413.5,93.6,411.6,95.5z"/>
	<path fill="#FFFFFF" stroke="#287FB8" stroke-miterlimit="10" d="M414.5,104.6h-78c-4.1,4.1-6.5,6.4-10.6,10.4v0h99v0
		C420.8,111,418.6,108.7,414.5,104.6z"/>
	<path fill="#FFFFFF" stroke="#287FB8" stroke-miterlimit="10" d="M350,112.2h50.4c2.9-2.9,4.5-4.5,7.3-7.3v-0.3h-65.1v0.3
		C345.5,107.7,347.1,109.4,350,112.2z"/>
	<path fill="#FFFFFF" stroke="#287FB8" stroke-miterlimit="10" d="M390,102.1H361c-1.2,0-2.2-1-2.2-2.2v-4.1c0-1.2,1-2.2,2.2-2.2
		H390c1.2,0,2.2,1,2.2,2.2v4.1C392.2,101.2,391.2,102.1,390,102.1z"/>
	<path fill="#FFFFFF" stroke="#287FB8" stroke-miterlimit="10" d="M361.2,89.6h28.5c0.3,0,0.6-0.2,0.9-0.4l5.1-6.3
		c0.2-0.3,0.4-0.7,0.4-1.1l0,0c0-0.8-0.6-1.5-1.2-1.5h-38.8c-0.7,0-1.2,0.7-1.2,1.5l0,0c0,0.4,0.1,0.8,0.4,1.1l5.1,6.3
		C360.6,89.4,360.9,89.6,361.2,89.6z"/>
	<g>
		<path fill="#FFFFFF" stroke="#287FB8" stroke-miterlimit="10" d="M362.7,88.3L362.7,88.3c-0.6,0-1.1-0.5-1.1-1.1v-4.4
			c0-0.6,0.5-1.1,1.1-1.1l0,0c0.6,0,1.1,0.5,1.1,1.1v4.4C363.8,87.8,363.3,88.3,362.7,88.3z"/>
		<path fill="#FFFFFF" stroke="#287FB8" stroke-miterlimit="10" d="M367,88.3L367,88.3c-0.6,0-1.1-0.5-1.1-1.1v-4.4
			c0-0.6,0.5-1.1,1.1-1.1l0,0c0.6,0,1.1,0.5,1.1,1.1v4.4C368.1,87.8,367.6,88.3,367,88.3z"/>
		<path fill="#FFFFFF" stroke="#287FB8" stroke-miterlimit="10" d="M371.2,88.3L371.2,88.3c-0.6,0-1.1-0.5-1.1-1.1v-4.4
			c0-0.6,0.5-1.1,1.1-1.1l0,0c0.6,0,1.1,0.5,1.1,1.1v4.4C372.3,87.8,371.8,88.3,371.2,88.3z"/>
		<path fill="#FFFFFF" stroke="#287FB8" stroke-miterlimit="10" d="M375.5,88.3L375.5,88.3c-0.6,0-1.1-0.5-1.1-1.1v-4.4
			c0-0.6,0.5-1.1,1.1-1.1h0c0.6,0,1.1,0.5,1.1,1.1v4.4C376.6,87.8,376.1,88.3,375.5,88.3z"/>
		<path fill="#FFFFFF" stroke="#287FB8" stroke-miterlimit="10" d="M379.8,88.3L379.8,88.3c-0.6,0-1.1-0.5-1.1-1.1v-4.4
			c0-0.6,0.5-1.1,1.1-1.1l0,0c0.6,0,1.1,0.5,1.1,1.1v4.4C380.9,87.8,380.4,88.3,379.8,88.3z"/>
		<path fill="#FFFFFF" stroke="#287FB8" stroke-miterlimit="10" d="M384,88.3L384,88.3c-0.6,0-1.1-0.5-1.1-1.1v-4.4
			c0-0.6,0.5-1.1,1.1-1.1l0,0c0.6,0,1.1,0.5,1.1,1.1v4.4C385.1,87.8,384.6,88.3,384,88.3z"/>
		<path fill="#FFFFFF" stroke="#287FB8" stroke-miterlimit="10" d="M388.3,88.3L388.3,88.3c-0.6,0-1.1-0.5-1.1-1.1v-4.4
			c0-0.6,0.5-1.1,1.1-1.1l0,0c0.6,0,1.1,0.5,1.1,1.1v4.4C389.4,87.8,388.9,88.3,388.3,88.3z"/>
	</g>
	<path fill="#FFFFFF" stroke="#287FB8" stroke-miterlimit="10" d="M412.8,63.6l-12.5,15.8h-24.8V67.9
		C397.3,67.9,409.6,64.6,412.8,63.6z"/>
	<path fill="#FFFFFF" stroke="#287FB8" stroke-miterlimit="10" d="M375.5,67.9v11.4h-24.9l-12.5-15.8
		C341.3,64.6,353.6,67.9,375.5,67.9z"/>
	<circle fill="#FFFFFF" stroke="#287FB8" stroke-miterlimit="10" cx="375.5" cy="79.7" r="5.3"/>
	<circle fill="#FFFFFF" stroke="#287FB8" stroke-miterlimit="10" cx="375.5" cy="79.7" r="2.5"/>
	<path fill="#FFFFFF" stroke="#287FB8" stroke-miterlimit="10" d="M353.7,86c0,2.3-1.3,3.4-5.7,3.4h-5.9c-1.4,0-2.7,0-3.9-0.2v-5.5
		v-6.3c2.5,0.6,5.9,2.1,8.4,3.2C349.9,82.2,353.7,83.5,353.7,86z"/>
	<path fill="#FFFFFF" stroke="#287FB8" stroke-miterlimit="10" d="M338.1,83.8v5.5c-3.7-0.4-6.6-1.4-6.6-3.9v-1.6H338.1z"/>
	<path fill="#FFFFFF" stroke="#287FB8" stroke-miterlimit="10" d="M338.1,77.6v6.3h-6.6v-2.5c0-3.9,2.3-4,4.7-4
		C336.8,77.3,337.4,77.4,338.1,77.6z"/>
	<path fill="#FFFFFF" stroke="#287FB8" stroke-miterlimit="10" d="M397.3,86c0,2.3,1.3,3.4,5.7,3.4h5.9c1.4,0,2.7,0,3.9-0.2v-5.5
		v-6.3c-2.5,0.6-5.9,2.1-8.4,3.2C401.1,82.2,397.3,83.5,397.3,86z"/>
	<path fill="#FFFFFF" stroke="#287FB8" stroke-miterlimit="10" d="M412.9,83.8v5.5c3.7-0.4,6.6-1.4,6.6-3.9v-1.6H412.9z"/>
	<path fill="#FFFFFF" stroke="#287FB8" stroke-miterlimit="10" d="M412.9,77.6v6.3h6.6v-2.5c0-3.9-2.3-4-4.7-4
		C414.2,77.3,413.6,77.4,412.9,77.6z"/>
</g>
</svg>
