<?xml version="1.0" encoding="utf-8"?>
<!-- Generator: Adobe Illustrator 18.0.0, SVG Export Plug-In . SVG Version: 6.00 Build 0)  -->
<!DOCTYPE svg PUBLIC "-//W3C//DTD SVG 1.1//EN" "http://www.w3.org/Graphics/SVG/1.1/DTD/svg11.dtd">
<svg version="1.1" xmlns="http://www.w3.org/2000/svg" xmlns:xlink="http://www.w3.org/1999/xlink" x="0px" y="0px" width="451px"
	 height="151px" viewBox="0 0 451 151" enable-background="new 0 0 451 151" xml:space="preserve">
<g id="Grid">
	<rect x="0.5" y="0.5" fill="none" width="150" height="150"/>
	<rect x="150.5" y="0.5" fill="none" width="150" height="150"/>
	<rect x="300.5" y="0.5" fill="none" width="150" height="150"/>
</g>
<g id="Color">
	<g>
		<g>
			<path fill="#7F8C8D" d="M48.7,95.8c-1.5,0.8-2.7,2.3-2.7,4v18.6c0,0.8,0.5,1.6,0.9,2.3c7.7,1.7,17.7,2.8,28.5,2.8
				c10.8,0,20.4-1,28.1-2.8c0.4-0.7,0.5-1.5,0.5-2.3V99.9c0-1.8-0.8-3.3-2.3-4.1c-6.6,2.1-16,3.4-26.5,3.4
				C64.7,99.2,55.2,97.9,48.7,95.8z"/>
			<path fill="#E74C3C" d="M96,62.3h0.4c0,0-4.6-5.1-21.2-5.1c-16.6,0-21.2,3.9-21.2,3.9v33c0,0,0.1,0,0,0.1
				c6.3,1.4,13.6,2.2,21.3,2.2c7.7,0,14.8-0.8,21-2.2c-0.1,0-0.4,0-0.4-0.1V62.3z"/>
			<circle fill="#F3A59D" cx="62" cy="66.3" r="2.7"/>
			<path fill="#F3A59D" d="M59.1,73.1c0-1.7,1.3-3.1,3-3.1s3,1.4,3,3.1V89c0,1.7-1.3,3.1-3,3.1c-1.7,0-3-1.4-3-3.1V73.1z"/>
			<path fill="#F1C40F" d="M75.5,51.5c2.1,0,3.8-1.7,3.8-3.7V29.2c0-2.1-1.8-3.7-3.8-3.7c-2.1,0-3.8,1.7-3.8,3.7v18.6
				C71.7,49.9,73.4,51.5,75.5,51.5z"/>
			<path fill="#F39C12" d="M59.9,49.1c0.4,0.4,0.8,0.5,1.3,0.5c0.5,0,1-0.2,1.3-0.5c0.7-0.7,0.7-1.9,0-2.6L49.4,33.4
				c-0.7-0.7-1.9-0.7-2.6,0c-0.7,0.7-0.7,1.9,0,2.6L59.9,49.1z"/>
			<path fill="#F39C12" d="M89.8,49.7c0.5,0,0.9-0.2,1.3-0.5L104.2,36c0.7-0.7,0.7-1.9,0-2.6c-0.7-0.7-1.9-0.7-2.6,0L88.4,46.5
				c-0.7,0.7-0.7,1.9,0,2.6C88.8,49.5,89.3,49.7,89.8,49.7z"/>
			<path fill="#F1C40F" d="M125.4,53.9c-0.3-2-2.2-3.4-4.3-3.1l-18.3,3c-2,0.3-3.4,2.3-3.1,4.3c0.3,1.8,1.9,3.1,3.7,3.1
				c0.2,0,0.4,0,0.6-0.1l18.3-3C124.4,57.8,125.8,55.9,125.4,53.9z"/>
			<path fill="#F1C40F" d="M47.6,61.2c1.8,0,3.4-1.3,3.7-3.1c0.3-2-1-3.9-3.1-4.3l-18.3-3c-2.1-0.4-3.9,1-4.3,3.1
				c-0.3,2,1,3.9,3.1,4.3l18.3,3C47.2,61.2,47.4,61.2,47.6,61.2z"/>
			<path fill="#C0392B" d="M75.5,96.4c-7.7,0-14.9-0.8-21.2-2.2c-1.2,0.3-2.2,0.5-3.1,0.8c6.5,1.9,15,3,24.3,3
				c9.3,0,17.7-1.1,24.2-3c-0.9-0.3-1.9-0.5-3-0.8C90.4,95.6,83.2,96.4,75.5,96.4z"/>
			<path fill="#231F20" d="M47.2,120.7c0.6,1,1.7,1.8,2.9,2.1c4.8,1,14.2,2.7,25.4,2.7c11.2,0,20.6-1.6,25.4-2.7
				c1.3-0.3,2.3-1.1,2.9-2.1c-7.7,1.7-17.6,2.8-28.3,2.8C64.7,123.5,54.9,122.5,47.2,120.7z"/>
			<path fill="#BDC3C7" d="M50,119.2v-18.9c0-1.9,1.6-3.7,3.4-4.3c0.2-0.1,0.5-0.1,0.7-0.2c-0.4-0.1-0.7-0.2-1-0.3
				c-0.5,0.1-1.3,0.3-1.7,0.4c-1.8,0.7-3.4,2.4-3.4,4.3v18.9c0,0.7,0.5,1.4,0.8,1.9c0.7,0.1,1.3,0.3,2.1,0.4
				C50.5,120.8,50,120,50,119.2z"/>
			<path fill="#ECF0F1" d="M99.7,95c-6.4,1.9-14.9,3-24.2,3c-9.3,0-17.8-1.1-24.3-3c-0.6,0.2-1.2,0.4-1.7,0.6
				c-0.2,0.1-0.4,0.2-0.6,0.3c6.6,2.1,16,3.4,26.5,3.4c10.5,0,19.9-1.3,26.5-3.4c-0.1-0.1-0.2-0.1-0.4-0.2
				C101,95.4,100.4,95.2,99.7,95z"/>
		</g>
		<path fill="#C0392B" d="M75.5,96.4c-7.7,0-14.9-0.8-21.2-2.2c-1.2,0.3-2.2,0.5-3.1,0.8c6.5,1.9,15,3,24.3,3c9.3,0,17.7-1.1,24.2-3
			c-0.9-0.3-1.9-0.5-3-0.8C90.4,95.6,83.2,96.4,75.5,96.4z"/>
	</g>
	<g>
		<rect x="244.1" y="30.8" fill="#231F20" width="15.4" height="35"/>
		<polygon fill="#7F8C8D" points="244.1,66.8 259.5,66.8 259.5,38.3 244.1,31.8 		"/>
		<polygon fill="#E74C3C" points="175.5,73.3 275.5,73.3 227,25.2 		"/>
		<polygon fill="#C0392B" points="175.5,73.3 261.5,73.3 227,25.2 		"/>
		<rect x="189" y="73.3" fill="#2C3E50" width="72" height="52"/>
		<polygon fill="#34495E" points="189.5,73.3 261,73.3 261,125.3 235.5,125.3 		"/>
		<g>
			<polygon fill="#ECF0F1" points="195.7,73.3 192.6,78.7 189.5,73.3 			"/>
			<polygon fill="#ECF0F1" points="201.7,73.3 198.6,78.7 195.5,73.3 			"/>
			<polygon fill="#ECF0F1" points="207.7,73.3 204.6,78.7 201.5,73.3 			"/>
			<polygon fill="#ECF0F1" points="213.7,73.3 210.5,78.7 207.4,73.3 			"/>
			<polygon fill="#ECF0F1" points="219.6,73.3 216.5,78.7 213.4,73.3 			"/>
			<polygon fill="#ECF0F1" points="225.6,73.3 222.5,78.7 219.4,73.3 			"/>
			<polygon fill="#ECF0F1" points="231.6,73.3 228.5,78.7 225.4,73.3 			"/>
			<polygon fill="#ECF0F1" points="237.6,73.3 234.4,78.7 231.3,73.3 			"/>
			<polygon fill="#ECF0F1" points="243.5,73.3 240.4,78.7 237.3,73.3 			"/>
			<polygon fill="#ECF0F1" points="249.5,73.3 246.4,78.7 243.3,73.3 			"/>
			<polygon fill="#ECF0F1" points="255.5,73.3 252.4,78.7 249.3,73.3 			"/>
			<polygon fill="#ECF0F1" points="261.5,73.3 258.3,78.7 255.2,73.3 			"/>
		</g>
		<rect x="193.5" y="82.3" fill="#7F8C8D" width="21.6" height="18"/>
		<rect x="195" y="84.3" fill="#ECF0F1" width="18" height="14"/>
		<rect x="203.5" y="84.3" fill="#7F8C8D" width="2" height="14"/>
		<rect x="235.2" y="82.3" fill="#7F8C8D" width="21.7" height="18"/>
		<rect x="237" y="84.3" fill="#ECF0F1" width="18" height="14"/>
		<rect x="245.5" y="84.3" fill="#7F8C8D" width="2" height="14"/>
		<rect x="214.5" y="106.3" fill="#7F8C8D" width="22" height="19"/>
		<rect x="216.5" y="108.3" fill="#231F20" width="18" height="17"/>
		<polygon fill="#454C4D" points="234.5,124.8 220.5,108.8 234.5,108.8 		"/>
	</g>
	<g>
		<path fill="#4795BB" d="M403,110.1h21.9V82.7c0,0-0.2-3.4-0.5-4c0,0-0.4-1-0.9-2.6h4.4c2,0,3.1-1.6,2.4-3.7l-1.3-3.7
			c-0.7-2-2.9-3.7-4.9-3.7h-4.5c-3.4-9.6-7.6-27.7-8.8-30.4c-1.9-4.2-7.9-6.1-11.2-7c0,0-5.5-2.1-24-2.1c-18.5,0-24,2.1-24,2.1
			c-3.9,1.3-9.3,3.1-11.4,7.2c-1,1.9-5.2,20.4-8.7,30.2h-4.5c-2,0-4.2,1.6-4.9,3.7l-1.3,3.7c-0.7,2,0.4,3.7,2.4,3.7h4.4
			c-0.6,1.6-0.9,2.6-0.9,2.6c-0.4,0.6-0.8,3.3-0.8,4.1l0,21.9l0,1.4v4.1H348H403z"/>
		<path fill="#39424B" d="M338.1,61.1c3-13.8,6.3-21.6,7-23.8c0.6-1.6,1.1-6.5,30.4-6.5s29.9,5.6,30,5.6c0.9,3,4.5,11.9,7.3,24.6
			c0,0-12.3,4.6-37.3,4.6C350.5,65.7,338.1,61.1,338.1,61.1z"/>
		<path fill="#39424B" d="M375.5,62.5c-17.5,0-28.7-2.3-33.5-3.6c2.3-9.6,4.5-15.8,5.7-18.8c0.3-0.7,0.5-1.2,0.6-1.6l0.1-0.2
			c0.1-0.4,2.1-4,27.2-4c21.5,0,26.2,3,27,3.7c0.2,0.7,0.5,1.5,0.9,2.6c1.4,3.9,3.6,10.2,5.6,18.4C404.1,60.1,392.9,62.5,375.5,62.5
			z"/>
		<path fill="#2F363E" d="M403,121.6c0,2.1,1.7,3.9,3.9,3.9h14.2c2.1,0,3.8-1.7,3.8-3.9l0-7.1H403V121.6z"/>
		<path fill="#2F363E" d="M329.6,125.5h14.5c2.2,0,3.9-1.7,3.9-3.9v-7.1h-22.1v7C325.9,123.7,327.5,125.5,329.6,125.5z"/>
		<path fill="#5AB1DC" d="M411.6,95.5L411.6,95.5c-1.9,1.9-4.6,3-7.3,3h-58c-2.7,0-5.4-1.1-7.3-3v0c-1.9-1.9-4.6-3-7.3-3h-5.8v22.6
			h99V92.5h-6C416.2,92.5,413.5,93.6,411.6,95.5z"/>
		<path fill="#3A7B99" d="M414.5,104.6h-78c-4.1,4.1-6.5,6.4-10.6,10.4v0h99v0C420.8,111,418.6,108.7,414.5,104.6z"/>
		<path fill="#2B4E64" d="M350,112.2h50.4c2.9-2.9,4.5-4.5,7.3-7.3v-0.3h-65.1v0.3C345.5,107.7,347.1,109.4,350,112.2z"/>
		<path fill="#ECF0F1" d="M390,102.1H361c-1.2,0-2.2-1-2.2-2.2v-4.1c0-1.2,1-2.2,2.2-2.2H390c1.2,0,2.2,1,2.2,2.2v4.1
			C392.2,101.2,391.2,102.1,390,102.1z"/>
		<path fill="#2B4E64" d="M361.2,89.6h28.5c0.3,0,0.6-0.2,0.9-0.4l5.1-6.3c0.2-0.3,0.4-0.7,0.4-1.1l0,0c0-0.8-0.6-1.5-1.2-1.5h-38.8
			c-0.7,0-1.2,0.7-1.2,1.5l0,0c0,0.4,0.1,0.8,0.4,1.1l5.1,6.3C360.6,89.4,360.9,89.6,361.2,89.6z"/>
		<g>
			<path fill="#3C7B9A" d="M362.7,88.3L362.7,88.3c-0.6,0-1.1-0.5-1.1-1.1v-4.4c0-0.6,0.5-1.1,1.1-1.1l0,0c0.6,0,1.1,0.5,1.1,1.1
				v4.4C363.8,87.8,363.3,88.3,362.7,88.3z"/>
			<path fill="#3C7B9A" d="M367,88.3L367,88.3c-0.6,0-1.1-0.5-1.1-1.1v-4.4c0-0.6,0.5-1.1,1.1-1.1l0,0c0.6,0,1.1,0.5,1.1,1.1v4.4
				C368.1,87.8,367.6,88.3,367,88.3z"/>
			<path fill="#3C7B9A" d="M371.2,88.3L371.2,88.3c-0.6,0-1.1-0.5-1.1-1.1v-4.4c0-0.6,0.5-1.1,1.1-1.1l0,0c0.6,0,1.1,0.5,1.1,1.1
				v4.4C372.3,87.8,371.8,88.3,371.2,88.3z"/>
			<path fill="#3C7B9A" d="M375.5,88.3L375.5,88.3c-0.6,0-1.1-0.5-1.1-1.1v-4.4c0-0.6,0.5-1.1,1.1-1.1h0c0.6,0,1.1,0.5,1.1,1.1v4.4
				C376.6,87.8,376.1,88.3,375.5,88.3z"/>
			<path fill="#3C7B9A" d="M379.8,88.3L379.8,88.3c-0.6,0-1.1-0.5-1.1-1.1v-4.4c0-0.6,0.5-1.1,1.1-1.1l0,0c0.6,0,1.1,0.5,1.1,1.1
				v4.4C380.9,87.8,380.4,88.3,379.8,88.3z"/>
			<path fill="#3C7B9A" d="M384,88.3L384,88.3c-0.6,0-1.1-0.5-1.1-1.1v-4.4c0-0.6,0.5-1.1,1.1-1.1l0,0c0.6,0,1.1,0.5,1.1,1.1v4.4
				C385.1,87.8,384.6,88.3,384,88.3z"/>
			<path fill="#3C7B9A" d="M388.3,88.3L388.3,88.3c-0.6,0-1.1-0.5-1.1-1.1v-4.4c0-0.6,0.5-1.1,1.1-1.1l0,0c0.6,0,1.1,0.5,1.1,1.1
				v4.4C389.4,87.8,388.9,88.3,388.3,88.3z"/>
		</g>
		<path fill="#3D84A4" d="M412.8,63.6l-12.5,15.8h-24.8V67.9C397.3,67.9,409.6,64.6,412.8,63.6z"/>
		<path fill="#58ABD5" d="M375.5,67.9v11.4h-24.9l-12.5-15.8C341.3,64.6,353.6,67.9,375.5,67.9z"/>
		<circle fill="#4795BB" cx="375.5" cy="79.7" r="5.3"/>
		<circle fill="#FFFFFF" cx="375.5" cy="79.7" r="2.5"/>
		<g>
			<defs>
				<path id="SVGID_3_" d="M375.5,62.5c-17.5,0-28.7-2.3-33.5-3.6c2.3-9.6,4.5-15.8,5.7-18.8c0.3-0.7,0.5-1.2,0.6-1.6l0.1-0.2
					c0.1-0.4,2.1-4,27.2-4c21.5,0,26.2,3,27,3.7c0.2,0.7,0.5,1.5,0.9,2.6c1.4,3.9,3.6,10.2,5.6,18.4
					C404.1,60.1,392.9,62.5,375.5,62.5z"/>
			</defs>
			<clipPath id="SVGID_1_">
				<use xlink:href="#SVGID_3_"  overflow="visible"/>
			</clipPath>
			<g clip-path="url(#SVGID_1_)">
				
					<rect x="353.9" y="11.2" transform="matrix(0.7071 -0.7071 0.7071 0.7071 66.5766 267.4169)" opacity="0.5" fill="#FFFFFF" width="4.4" height="84.2"/>
				
					<rect x="358.4" y="4.6" transform="matrix(0.7071 -0.7071 0.7071 0.7071 73.23 270.1729)" opacity="0.5" fill="#FFFFFF" width="8.7" height="84.2"/>
			</g>
		</g>
		<g id="XMLID_11_">
			<path fill="#ECF0F1" d="M353.7,86c0,2.3-1.3,3.4-5.7,3.4h-5.9c-1.4,0-2.7,0-3.9-0.2v-5.5v-6.3c2.5,0.6,5.9,2.1,8.4,3.2
				C349.9,82.2,353.7,83.5,353.7,86z"/>
			<path fill="#E67E22" d="M338.1,83.8v5.5c-3.7-0.4-6.6-1.4-6.6-3.9v-1.6H338.1z"/>
			<path fill="#95A5A6" d="M338.1,77.6v6.3h-6.6v-2.5c0-3.9,2.3-4,4.7-4C336.8,77.3,337.4,77.4,338.1,77.6z"/>
		</g>
		<g id="XMLID_10_">
			<path fill="#ECF0F1" d="M397.3,86c0,2.3,1.3,3.4,5.7,3.4h5.9c1.4,0,2.7,0,3.9-0.2v-5.5v-6.3c-2.5,0.6-5.9,2.1-8.4,3.2
				C401.1,82.2,397.3,83.5,397.3,86z"/>
			<path fill="#E67E22" d="M412.9,83.8v5.5c3.7-0.4,6.6-1.4,6.6-3.9v-1.6H412.9z"/>
			<path fill="#95A5A6" d="M412.9,77.6v6.3h6.6v-2.5c0-3.9-2.3-4-4.7-4C414.2,77.3,413.6,77.4,412.9,77.6z"/>
		</g>
	</g>
</g>
</svg>
