<?xml version="1.0" encoding="utf-8"?>
<!-- Generator: Adobe Illustrator 18.0.0, SVG Export Plug-In . SVG Version: 6.00 Build 0)  -->
<!DOCTYPE svg PUBLIC "-//W3C//DTD SVG 1.1//EN" "http://www.w3.org/Graphics/SVG/1.1/DTD/svg11.dtd">
<svg version="1.1" id="Layer_1" xmlns="http://www.w3.org/2000/svg" xmlns:xlink="http://www.w3.org/1999/xlink" x="0px" y="0px"
	 width="194.5px" height="185.1px" viewBox="0 0 194.5 185.1" enable-background="new 0 0 194.5 185.1" xml:space="preserve">
<g>
	<circle fill="#1ABC9C" cx="101.9" cy="92.6" r="92.6"/>
	<path fill="#FFFFFF" d="M147.1,106.7l4.3-33.6l-30.5-11.6l-9.7,4.6c-0.3,1.5-0.8,2.9-1.3,4.3l7.3-3.5l-3,32.5l0.2,1.7L92,104.6
		l-1.8,3.6l24.5-3.7l2.8,28.9l3.3-0.3l-2.8-29l0.3,0l25.6,3.2l0.1-0.5l3.9,32.5l-26.6-6.1l-34.7,6.6l-0.3-0.1l3.1-29.6l0-0.2
		l-0.1-1.1l-4.3-8.4l0.6,5.3l-0.8,0.1l-24.7-3.8l0.1-1.2l-3.8-29.8l17.3,7.3l-1.4-2.8c-0.5-0.6-0.9-1.2-1.3-1.9l-18.5-7.8l4.5,35.1
		l-0.1,0.7l-0.1,0l-0.5,3.3l0.2,0l-3.8,32l33.9,6.4l34.6-6.6l30.5,7L147.1,106.7z M118.1,100.7l-0.6,0.1l-0.1-1.2l3.2-34.2l0.4-0.2
		l26.8,10.2l-3.6,28.7L118.1,100.7z M82.8,139l-26.7-5l3.4-28.8l25.1,3.9l1.1-0.2l0.1,1.1L82.8,139z M89.5,109.6l-0.4-0.8l0-0.3
		l1.1-0.2L89.5,109.6z M74.7,72.5l14.6,28.7l14.4-28.4c2.8-3.3,4.6-7.6,4.6-12.3c0-10.4-8.5-18.9-18.9-18.9s-18.9,8.5-18.9,18.9
		C70.5,65.1,72.1,69.2,74.7,72.5L74.7,72.5z M89.3,48.9c6.4,0,11.6,5.2,11.6,11.6s-5.2,11.6-11.6,11.6c-6.4,0-11.6-5.2-11.6-11.6
		S82.9,48.9,89.3,48.9z"/>
	<g>
		<path fill="#FFFFFF" d="M8.4,100.5c-4.4,0-7.9-3.5-7.9-7.9c0-4.4,3.5-7.9,7.9-7.9s7.9,3.5,7.9,7.9C16.3,96.9,12.8,100.5,8.4,100.5
			z"/>
		<path fill="#7F8C8D" d="M8.4,85.2c4.1,0,7.4,3.3,7.4,7.4c0,4.1-3.3,7.4-7.4,7.4C4.3,100,1,96.7,1,92.6C1,88.5,4.3,85.2,8.4,85.2
			 M8.4,84.2c-4.6,0-8.4,3.8-8.4,8.4c0,4.6,3.8,8.4,8.4,8.4s8.4-3.8,8.4-8.4C16.8,87.9,13,84.2,8.4,84.2L8.4,84.2z"/>
	</g>
</g>
</svg>
