<?xml version="1.0" encoding="utf-8"?>
<!-- Generator: Adobe Illustrator 18.0.0, SVG Export Plug-In . SVG Version: 6.00 Build 0)  -->
<!DOCTYPE svg PUBLIC "-//W3C//DTD SVG 1.1//EN" "http://www.w3.org/Graphics/SVG/1.1/DTD/svg11.dtd">
<svg version="1.1" id="Layer_1" xmlns="http://www.w3.org/2000/svg" xmlns:xlink="http://www.w3.org/1999/xlink" x="0px" y="0px"
	 width="926.6px" height="405.4px" viewBox="0 0 926.6 405.4" enable-background="new 0 0 926.6 405.4" xml:space="preserve">
<g>
	<g>
		<polygon fill="#95A5A6" points="474,405.4 0,405.4 0,289.4 918.1,289.4 918.1,8.4 69,8.4 69,7.4 919.1,7.4 919.1,290.4 1,290.4 
			1,404.4 474,404.4 		"/>
	</g>
	<g>
		<g>
			<path fill="#FFFFFF" d="M918.2,16.3c-4.4,0-7.9-3.5-7.9-7.9c0-4.4,3.5-7.9,7.9-7.9c4.4,0,7.9,3.5,7.9,7.9
				C926.1,12.8,922.6,16.3,918.2,16.3z"/>
		</g>
		<g>
			<path fill="#7F8C8D" d="M918.2,1c4.1,0,7.4,3.3,7.4,7.4c0,4.1-3.3,7.4-7.4,7.4s-7.4-3.3-7.4-7.4C910.8,4.3,914.1,1,918.2,1
				 M918.2,0c-4.6,0-8.4,3.8-8.4,8.4s3.8,8.4,8.4,8.4c4.6,0,8.4-3.8,8.4-8.4S922.9,0,918.2,0L918.2,0z"/>
		</g>
	</g>
</g>
</svg>
