<?xml version="1.0" encoding="utf-8"?>
<!-- Generator: Adobe Illustrator 18.0.0, SVG Export Plug-In . SVG Version: 6.00 Build 0)  -->
<!DOCTYPE svg PUBLIC "-//W3C//DTD SVG 1.1//EN" "http://www.w3.org/Graphics/SVG/1.1/DTD/svg11.dtd">
<svg version="1.1" id="Layer_1" xmlns="http://www.w3.org/2000/svg" xmlns:xlink="http://www.w3.org/1999/xlink" x="0px" y="0px"
	 width="70px" height="70px" viewBox="0 0 70 70" enable-background="new 0 0 70 70" xml:space="preserve">
<g>
	<g>
		<rect x="-0.7" y="-0.7" fill="#FFA601" width="71.4" height="71.4"/>
		<g opacity="0.7">
			<polygon fill="#FFBA37" points="70.7,35.4 70.7,70.7 61.6,70.7 34.6,35.4 			"/>
			<polygon fill="#FFA601" points="70.7,-0.7 70.7,35.4 34.6,35.4 62.1,-0.7 			"/>
			<polygon fill="#FFA900" points="62.1,-0.7 34.6,35.4 34.6,-0.7 			"/>
			<polygon opacity="0.5" fill="#9D6E00" points="34.6,35.4 61.6,70.7 34.6,70.7 			"/>
			<polygon opacity="0.5" fill="#AE7800" points="34.6,35.4 34.6,70.7 7.7,70.7 			"/>
			<polygon fill="#EDA200" points="34.6,-0.7 34.6,35.4 7.2,-0.7 			"/>
			<polygon fill="#D48F00" points="7.2,-0.7 34.6,35.4 -0.7,35.4 -0.7,-0.7 			"/>
			<polygon fill="#C08300" points="34.6,35.4 7.7,70.7 -0.7,70.7 -0.7,35.4 			"/>
		</g>
		<g>
			<linearGradient id="SVGID_1_" gradientUnits="userSpaceOnUse" x1="31.8619" y1="34.1502" x2="61.2143" y2="58.7797">
				<stop  offset="0" style="stop-color:#231F20"/>
				<stop  offset="0.7106" style="stop-color:#FFFFFF;stop-opacity:0"/>
			</linearGradient>
			<path fill="url(#SVGID_1_)" d="M39,84.9l44.2-52.3L54.9,8.7c0,0,11.2,16.2-4.7,21.5c-6,2-11-3.2-11-3.2L13.4,56.2l0,7.1L39,84.9z
				"/>
		</g>
		<g>
			<path fill="#F1F1F1" d="M29.3,13.5c-7.3,2.3-11.3,10-9.1,17.3c0.3,0.8,0.6,1.6,1,2.3l-11,21l2.5,7.9c0.5,1.5,2,2.3,3.5,1.8
				l2.6-0.8l-0.8-2.6l5.3-1.6l-1.6-5.3l5.3-1.6l-1.6-5.3l5.3-1.6l2.4-4.5c1.6,0.1,3.2-0.1,4.7-0.6c7.3-2.3,11.3-10,9.1-17.3
				C44.3,15.3,36.6,11.3,29.3,13.5z M37.4,25.5c-2.2,0.7-4.5-0.5-5.2-2.7c-0.7-2.2,0.5-4.5,2.7-5.2c2.2-0.7,4.5,0.5,5.2,2.7
				S39.6,24.8,37.4,25.5z"/>
			<path fill="#231F20" d="M57.5,18.7c0,5.8-4.7,10.5-10.5,10.5s-10.5-4.7-10.5-10.5S41.3,8.2,47.1,8.2S57.5,12.9,57.5,18.7z
				 M47.1,6c-7,0-12.7,5.7-12.7,12.7S40,31.4,47.1,31.4s12.7-5.7,12.7-12.7S54.1,6,47.1,6z"/>
			<path fill="#F1F1F1" d="M46.6,22.6c-1-3.3-3.1-5.9-5.8-7.5c0.2,1.5-0.2,3-1.3,4.1c0.2,0.3,0.4,0.7,0.6,1.1
				c0.7,2.2-0.5,4.5-2.7,5.2c-2.2,0.7-4.5-0.5-5.2-2.7c-0.4-1.3-0.1-2.6,0.6-3.6c-1.5-1.6-1.7-4.3-0.5-6.2c-1,0.1-2,0.3-3,0.6
				c-7.3,2.3-11.3,10-9.1,17.3c0.3,0.8,0.6,1.6,1,2.3l-11,21l2.5,7.9c0.5,1.5,2,2.3,3.5,1.8l2.6-0.8l-0.8-2.6l5.3-1.6l-1.6-5.3
				l5.3-1.6l-1.6-5.3l5.3-1.6l2.4-4.5c1.6,0.1,3.2-0.1,4.7-0.6C44.8,37.6,48.9,29.9,46.6,22.6z"/>
		</g>
	</g>
</g>
</svg>
