<?xml version="1.0" encoding="utf-8"?>
<!-- Generator: Adobe Illustrator 18.0.0, SVG Export Plug-In . SVG Version: 6.00 Build 0)  -->
<!DOCTYPE svg PUBLIC "-//W3C//DTD SVG 1.1//EN" "http://www.w3.org/Graphics/SVG/1.1/DTD/svg11.dtd">
<svg version="1.1" id="Layer_1" xmlns="http://www.w3.org/2000/svg" xmlns:xlink="http://www.w3.org/1999/xlink" x="0px" y="0px"
	 width="201.3px" height="185.1px" viewBox="0 0 201.3 185.1" enable-background="new 0 0 201.3 185.1" xml:space="preserve">
<circle fill="#7F8C8D" cx="100.7" cy="92.6" r="92.6"/>
<g>
	<path fill="#FFFFFF" d="M117,122.5c1.2-0.7,2.7-2.2,2.5-3c-0.2-0.9-1-1.1-2.5-1.4c-0.3,0-0.6-0.1-0.8-0.1c-1.4-0.3-2.3-1-2.6-2
		c-0.4-1.5,0.7-2.6,1.2-3.1c0.3-0.3,0.5-0.5,0.8-0.7c0.8-0.7,1.8-1.6,1.6-2.1c-0.2-0.7-1.8-0.8-2.2-0.8c-0.7,0-1.2,0.1-1.2,0.1
		l-1.6,0.3l-0.4-1.6l-1.3-4.9c-5.2-1.5-9.3-5.6-10.7-10.9c-0.7-2.7-0.7-5.5,0.1-8.1c-3.5-0.4-7.6-0.7-11-0.7c-6,0-10.4,0.6-18.4,1.9
		V72c0-9.8,8.6-17.8,18.4-17.8c6,0,11.7,3,14.9,7.6c-1.1,0.7-1.9,1.5-2.7,2.4c-2.7,3.1-3.7,7.4-2.6,11.7c0.7,2.6,2.2,4.8,4,6.4
		c-1.3,2.8-1.7,6.1-0.9,9.4c1.4,5.2,5.5,8.8,10.4,9.9l1.6,6c0,0,4.8-0.9,5.6,2c0.5,2-1.7,3.4-2.8,4.6c-0.5,0.5-1.7,1.6,0.5,2.1
		c1.2,0.3,4,0.2,4.7,2.8c0.7,2.6-3.3,5-3.3,5l7.3,4.2l4.3-7.3l-5.5-20.6l2.3,3.3c0,0,4.2-2.5,5.9,0c1.2,1.7-0.4,3.8-1.1,5.3
		c-0.3,0.7-1,2.1,1.2,1.8c1.2-0.2,3.9-1.2,5.4,1c1.5,2.2-1.4,5.8-1.4,5.8l8.3,1.5l1.5-8.4l-13.4-19.1c2.4-4.4,2.2-10-0.8-14.3
		c-2.2-3.1-5.5-5.1-9-5.6c-0.1-0.7-0.2-1.4-0.4-2.2c-0.5-2-1.5-3.7-2.8-5.2c-1.6-1.9-3.8-3.2-6.2-3.9c-4.3-9.2-14.1-15.5-24.9-15.5
		C73.7,44.9,61.1,57,61.1,72v15.5c0,0.2,0.2,0.5,0.1,0.5c-1.5,0.5-2.7,0.9-3.8,1.3c-1.3,0.5-2.3,1.9-2.3,3.3v35.5
		c0,1.4,1.2,2.8,2.5,3.3c10,4,20.6,6,31.3,6s21.3-2,31.3-6c1.1-0.4,2-1.5,2.2-2.7l-8.2-4.8L117,122.5z M104.5,89.1
		c-0.1-1.7,0.2-3.3,0.9-4.8c0.6,0.3,1.2,0.5,1.8,0.6c0,1.1,0.1,2.2,0.4,3.3L104.5,89.1z M107.3,82.9c-0.3-0.1-0.6-0.2-0.9-0.3
		c0.4-0.5,0.9-1,1.3-1.5C107.5,81.7,107.4,82.3,107.3,82.9z M122.7,75.4c1.9,0.3,3.7,1.2,5.2,2.6l-2.6,1.8c-0.9-1.1-1.9-2.1-3-2.9
		C122.4,76.5,122.6,76,122.7,75.4z M122.2,82l-5.5,3.8l-5.7,1.5c-0.1-0.6-0.2-1.3-0.2-1.9c0.9,0,1.8-0.2,2.7-0.4
		c2.9-0.8,5.2-2.5,6.9-4.7C121.1,80.8,121.7,81.4,122.2,82z M111.1,83.4c0.4-1.8,1.2-3.5,2.5-4.9c1.8-0.2,3.5,0.1,5.1,0.9
		c-1.4,1.8-3.3,3.1-5.6,3.8C112.4,83.2,111.7,83.3,111.1,83.4z M119.2,75.4c0.5-0.1,0.9-0.1,1.4-0.1c-0.1,0.2-0.1,0.5-0.2,0.7
		C120,75.8,119.6,75.6,119.2,75.4z M118.2,65.6c1.1,1.2,1.9,2.7,2.3,4.4c0.1,0.5,0.2,1,0.2,1.5c-2.7,0-5.5,0.8-7.9,2.5
		c-0.4,0.3-0.8,0.6-1.2,0.9c-0.3,0.1-0.5,0.1-0.8,0.2c-3.3,0.9-6,2.9-7.8,5.5c-1.4-1.3-2.5-3.1-3.1-5.1c-0.9-3.6,0-7.2,2.3-9.8
		c0.7-0.8,0.6-1.5,1.5-2.1c1.3,2.5,1.2,5.4,1.2,8.4v2.8c2-0.6,3.2-1.1,4.5-1.5c0.1,0,0.7-0.1,0.9-0.1c0.3-0.2,0.8-0.5,1.2-0.7
		c1.3-0.9,2.9-1.6,4.4-2.1c-0.2-2.6-0.6-5-1.4-7.4C116,63.6,117.2,64.5,118.2,65.6z M92.1,109.7v12.2c0,2-1,3.7-3,3.7
		c-2,0-3-1.6-3-3.7v-12.2c-3-1.3-4-3.5-4-6.2c0-4.1,3.1-7.4,7.2-7.4c4.1,0,6.9,3.3,6.9,7.4C96.2,106.1,95.1,108.4,92.1,109.7z"/>
</g>
<g>
	<path fill="#FFFFFF" d="M8.4,100.5c-4.4,0-7.9-3.5-7.9-7.9c0-4.4,3.5-7.9,7.9-7.9c4.4,0,7.9,3.5,7.9,7.9
		C16.3,96.9,12.8,100.5,8.4,100.5z"/>
	<path fill="#7F8C8D" d="M8.4,85.2c4.1,0,7.4,3.3,7.4,7.4c0,4.1-3.3,7.4-7.4,7.4C4.3,100,1,96.7,1,92.6C1,88.5,4.3,85.2,8.4,85.2
		 M8.4,84.2c-4.6,0-8.4,3.8-8.4,8.4c0,4.6,3.8,8.4,8.4,8.4c4.6,0,8.4-3.8,8.4-8.4C16.8,87.9,13,84.2,8.4,84.2L8.4,84.2z"/>
</g>
<g>
	<path fill="#FFFFFF" d="M192.9,100.5c-4.4,0-7.9-3.5-7.9-7.9c0-4.4,3.5-7.9,7.9-7.9c4.4,0,7.9,3.5,7.9,7.9
		C200.8,96.9,197.3,100.5,192.9,100.5z"/>
	<path fill="#7F8C8D" d="M192.9,85.2c4.1,0,7.4,3.3,7.4,7.4c0,4.1-3.3,7.4-7.4,7.4c-4.1,0-7.4-3.3-7.4-7.4
		C185.5,88.5,188.8,85.2,192.9,85.2 M192.9,84.2c-4.6,0-8.4,3.8-8.4,8.4c0,4.6,3.8,8.4,8.4,8.4c4.6,0,8.4-3.8,8.4-8.4
		C201.3,87.9,197.6,84.2,192.9,84.2L192.9,84.2z"/>
</g>
</svg>
