<?xml version="1.0" encoding="utf-8"?>
<!-- Generated by IcoMoon.io -->
<!DOCTYPE svg PUBLIC "-//W3C//DTD SVG 1.1//EN" "http://www.w3.org/Graphics/SVG/1.1/DTD/svg11.dtd">
<svg version="1.1" xmlns="http://www.w3.org/2000/svg" xmlns:xlink="http://www.w3.org/1999/xlink" width="45" height="40" viewBox="0 0 45 40">
<g id="icomoon-ignore">
</g>
<path d="M6.1 39c0 0 0 1 0.9 1 1.2 0 11.4 0 11.4 0v-9.3c0 0-0.2-1.5 1.3-1.5h4.7c1.8 0 1.7 1.5 1.7 1.5v9.3c0 0 9.6 0 11.1 0 1.3 0 1.2-1.3 1.2-1.3v-17.2l-15.7-14-16.7 14 0.1 17.5zM0 20.2c0 0 1.4 2.6 4.5 0l18.4-15.6 17.3 15.5c3.6 2.6 4.9 0 4.9 0l-22.2-20.1-22.9 20.2zM39.8 4.6h-4.4v5.4l4.4 3.8v-9.2z" fill="#FFF"></path>
</svg>
