<?xml version="1.0" encoding="utf-8"?>
<!-- Generator: Adobe Illustrator 18.0.0, SVG Export Plug-In . SVG Version: 6.00 Build 0)  -->
<!DOCTYPE svg PUBLIC "-//W3C//DTD SVG 1.1//EN" "http://www.w3.org/Graphics/SVG/1.1/DTD/svg11.dtd">
<svg version="1.1" id="Layer_1" xmlns="http://www.w3.org/2000/svg" xmlns:xlink="http://www.w3.org/1999/xlink" x="0px" y="0px"
	 width="201px" height="185.1px" viewBox="0 0 201 185.1" enable-background="new 0 0 201 185.1" xml:space="preserve">
<g>
	<g>
		<circle fill="#E74C3C" cx="101" cy="92.6" r="92.6"/>
		<g>
			<path fill="#FFFFFF" d="M107.4,37c-30.4,0-55.2,24.4-55.9,54.7H34.6l25.2,28.1L85,91.8H65.4c0.7-22.6,19.2-40.7,41.9-40.7
				c23.2,0,42,18.9,42,42.1s-18.8,42.1-42,42.1c-9.3,0-17.9-3-24.8-8.2l-9.6,10.3c9.5,7.5,21.5,11.9,34.5,11.9
				c30.9,0,56-25.1,56-56.1S138.3,37,107.4,37z"/>
			<g>
				<path fill="#FFFFFF" d="M96.3,108.5l3.6,11.1h0.1l3.6-11.1h4.9v15.9h-3.7v-3.9l0.4-7.3l-0.1,0l-3.8,11.2h-2.5l-3.8-11.1l-0.1,0
					l0.3,7.2v3.9h-3.7v-15.9H96.3z"/>
				<path fill="#FFFFFF" d="M114.6,109.8h-3.7v-2.5h3.7V109.8z M114.6,124.4h-3.7v-11.8h3.7V124.4z"/>
				<path fill="#FFFFFF" d="M120.2,112.6l0.1,1.7c0.4-0.6,0.9-1.1,1.4-1.4c0.6-0.3,1.2-0.5,1.9-0.5c1.2,0,2.1,0.4,2.7,1.1
					c0.7,0.8,1,1.9,1,3.6v7.3h-3.7v-7.4c0-0.7-0.1-1.2-0.4-1.4c-0.3-0.3-0.7-0.4-1.2-0.4c-0.3,0-0.6,0.1-0.9,0.2
					c-0.3,0.1-0.5,0.3-0.7,0.5v8.5h-3.7v-11.8H120.2z"/>
			</g>
			<g>
				<path fill="#FFFFFF" d="M99.8,103.7h-8.5V75.5h-8.2v-6l16.7-2.6V103.7z"/>
				<path fill="#FFFFFF" d="M105.7,87.5l2.1-20.6h21.6v6.6h-14.6l-0.9,7.7c0.6-0.5,1.4-0.9,2.4-1.2s2-0.5,3.2-0.5
					c3.6-0.1,6.4,1,8.3,3.1c1.9,2.2,2.9,5.2,2.9,9.2c0,3.5-1.1,6.4-3.3,8.8c-2.2,2.4-5.4,3.6-9.5,3.6c-3.5,0-6.5-1-9.1-2.9
					c-2.6-1.9-3.8-4.5-3.7-7.7l0.1-0.2l8.3-0.5c0,1.5,0.4,2.6,1.2,3.4c0.8,0.8,1.9,1.2,3.2,1.2c1.5,0,2.6-0.5,3.3-1.6
					c0.6-1.1,1-2.5,1-4.1c0-2-0.4-3.6-1.1-4.8c-0.7-1.2-1.9-1.7-3.4-1.7c-1.1,0-2.1,0.2-2.8,0.7c-0.7,0.5-1.2,1.1-1.5,1.8
					L105.7,87.5z"/>
			</g>
		</g>
	</g>
	<g>
		<path fill="#FFFFFF" d="M192.6,100.5c-4.4,0-7.9-3.5-7.9-7.9c0-4.4,3.5-7.9,7.9-7.9c4.4,0,7.9,3.5,7.9,7.9
			C200.5,96.9,197,100.5,192.6,100.5z"/>
		<path fill="#7F8C8D" d="M192.6,85.2c4.1,0,7.4,3.3,7.4,7.4c0,4.1-3.3,7.4-7.4,7.4c-4.1,0-7.4-3.3-7.4-7.4
			C185.2,88.5,188.5,85.2,192.6,85.2 M192.6,84.2c-4.6,0-8.4,3.8-8.4,8.4c0,4.6,3.8,8.4,8.4,8.4c4.6,0,8.4-3.8,8.4-8.4
			C201,87.9,197.2,84.2,192.6,84.2L192.6,84.2z"/>
	</g>
	<g>
		<path fill="#FFFFFF" d="M8.4,100.5c-4.4,0-7.9-3.5-7.9-7.9c0-4.4,3.5-7.9,7.9-7.9c4.4,0,7.9,3.5,7.9,7.9
			C16.3,96.9,12.8,100.5,8.4,100.5z"/>
		<path fill="#7F8C8D" d="M8.4,85.2c4.1,0,7.4,3.3,7.4,7.4c0,4.1-3.3,7.4-7.4,7.4C4.3,100,1,96.7,1,92.6C1,88.5,4.3,85.2,8.4,85.2
			 M8.4,84.2c-4.6,0-8.4,3.8-8.4,8.4c0,4.6,3.8,8.4,8.4,8.4s8.4-3.8,8.4-8.4C16.8,87.9,13,84.2,8.4,84.2L8.4,84.2z"/>
	</g>
</g>
</svg>
